Coordinates
version=1
nRows=8
nColumns=36
inDegrees=yes

Units are S.I. units (second, meters, Newtons, ...)
If the header above contains a line with 'inDegrees', this indicates whether rotational values are in degrees (yes) or radians (no).

endheader
time	pelvis_tilt	pelvis_list	pelvis_rotation	pelvis_tx	pelvis_ty	pelvis_tz	hip_flexion_r	hip_adduction_r	hip_rotation_r	knee_angle_r	knee_angle_r_beta	ankle_angle_r	subtalar_angle_r	mtp_angle_r	hip_flexion_l	hip_adduction_l	hip_rotation_l	knee_angle_l	knee_angle_l_beta	ankle_angle_l	subtalar_angle_l	mtp_angle_l	lumbar_extension	lumbar_bending	lumbar_rotation	arm_flex_r	arm_add_r	arm_rot_r	elbow_flex_r	pro_sup_r	arm_flex_l	arm_add_l	arm_rot_l	elbow_flex_l	pro_sup_l
      0.00000000	     -5.55765421	     -1.99745602	      9.39721118	     -0.08933410	      0.91984329	     -0.17656986	     31.04710184	      2.56179069	     -9.99142646	      4.36839061	      0.07624280	     -4.45399473	    -10.28078699	     -4.77761827	    -12.89071462	      0.57143816	     -9.36404180	     11.15496891	      0.19469094	     17.24016386	      6.05583271	     -4.77761827	      1.84017351	     -2.59562513	    -15.97426663	     -8.91724185	     -1.60127243	    -26.54319038	     25.52527530	    101.45343214	     18.04992743	     -9.20893042	    -10.50185919	     57.18895305	     95.34953735
      0.01000000	     -5.08897203	     -2.70067885	      9.55244843	     -0.07433750	      0.92071415	     -0.17636004	     30.42842702	      3.33131403	     -9.99356776	      5.56370657	      0.09710500	     -5.37425651	    -11.68438229	     -4.81489479	    -13.00243219	     -0.80239927	     -9.84268482	     13.32792690	      0.23261621	     15.92866697	      5.66394529	     -4.81489479	      1.55363313	     -1.63186074	    -15.97035105	     -8.76934201	     -1.81644523	    -26.41598838	     25.31226379	    101.39345640	     17.53552462	     -8.84642296	    -10.37131856	     56.94554973	     95.96382195
      0.02000000	     -4.60283938	     -3.37027346	      9.74405959	     -0.05941283	      0.92165212	     -0.17614701	     29.79766389	      4.08353726	     -9.94927631	      6.75108774	      0.11782871	     -6.53162879	    -13.24071853	     -4.85373594	    -13.09210646	     -2.13676089	     -9.93345063	     15.52419525	      0.27094832	     14.53343676	      5.20232479	     -4.85373594	      1.24242336	     -0.70793142	    -15.97171685	     -8.53779109	     -1.99732562	    -26.32251816	     24.98919756	    101.32139655	     17.02676829	     -8.47437845	    -10.26157030	     56.66681603	     96.57577279
      0.03000000	     -4.19440283	     -3.93788918	      9.86592493	     -0.04454908	      0.92261863	     -0.17568798	     29.15138414	      4.88380292	     -8.98811225	      7.73901785	      0.13507134	     -8.97546022	    -16.82257785	     -5.62242333	    -13.00141029	     -3.31181568	     -9.65490971	     17.84560103	      0.31146450	     12.76263210	      4.25855604	     -5.62242333	      1.00314848	      0.04499461	    -15.93604307	     -8.25483740	     -2.24424826	    -25.50673709	     24.53999732	    100.28276938	     16.43275865	     -8.09742988	    -10.96021758	     55.61125751	    105.33915734
      0.04000000	     -3.61553868	     -4.45882294	     10.03948103	     -0.02970734	      0.92396010	     -0.17522549	     28.48947874	      5.54229681	     -9.22099789	      9.17838785	      0.16019309	     -9.08412175	    -17.62676175	     -5.64446887	    -12.80818772	     -4.58234298	     -9.58140642	     20.61899323	      0.35986932	     10.83743153	      3.68132290	     -5.64446887	      0.52448626	      0.77871668	    -15.75342299	     -8.01078048	     -2.31656368	    -25.52951925	     24.38394049	    100.26628273	     15.93584153	     -7.73907800	    -10.80147411	     55.31766339	    105.33553314
      0.05000000	     -3.11655366	     -4.92117184	     10.17177758	     -0.01500532	      0.92539542	     -0.17461261	     27.91761331	      6.18128207	     -9.34408010	     10.65122856	      0.18589901	     -9.14691623	    -18.65936997	     -5.66918357	    -12.27897757	     -5.78541484	     -9.30820676	     23.70764365	      0.41377644	      8.43156580	      2.79290610	     -5.66918357	      0.12314294	      1.42720783	    -15.48853562	     -7.73835284	     -2.35333513	    -25.51213499	     24.24897802	    100.25280313	     15.38152631	     -7.40987934	    -10.60645122	     54.89813433	    105.33674504
      0.06000000	     -2.63499978	     -5.28406503	     10.27087883	     -0.00057967	      0.92693120	     -0.17381424	     27.32055302	      6.77332132	     -9.36558164	     12.08810444	      0.21097722	     -8.94167472	    -19.72194097	     -5.69199107	    -11.45804397	     -6.89908293	     -8.89675579	     27.15335518	      0.47391545	      5.64267920	      1.76611444	     -5.69199107	     -0.30428117	      1.94547262	    -15.10976194	     -7.41848111	     -2.32462646	    -25.44239495	     24.16793311	    100.24577262	     14.85220988	     -7.08378755	    -10.39520731	     54.41210109	    105.34241429
      0.07000000	     -2.41998421	     -5.50167102	     10.31492478	      0.01347748	      0.92826724	     -0.17290926	     26.99182531	      7.21117740	     -9.19860742	     13.54426209	      0.23639197	     -8.82040404	    -21.01120161	     -5.75859491	    -10.12392576	     -7.64197939	     -7.87024794	     30.76246667	      0.53690633	      1.72802072	     -0.82246833	     -5.75859491	     -0.45318293	      2.20091463	    -14.61836334	     -7.12073174	     -2.28947298	    -25.24959362	     24.09750064	    100.22074368	     14.33328271	     -6.83998267	     -9.97735189	     53.61117928	    105.41888451
